<svg xmlns="http://www.w3.org/2000/svg" viewBox="0 0 64 64" role="img" aria-label="JL">
  <rect width="64" height="64" rx="13" fill="#0b0c0e"/>
  <g transform="translate(13.50,41.93) scale(0.02846,-0.02846)" fill="#e9e7e1"><path transform="translate(0.0,0)" d="M502 698V191Q502 144 486.0 106.5Q470 69 440.5 43.0Q411 17 369.5 2.5Q328 -12 277 -12Q178 -12 121.5 38.0Q65 88 49 171L172 197Q181 153 204.5 124.5Q228 96 277 96Q322 96 346.0 122.5Q370 149 370 206V590H134V698Z"/><path transform="translate(700.0,0)" d="M100 0V698H231V108H540V0Z"/></g>
</svg>
